<?xml version="1.0" standalone="no"?>
<!DOCTYPE svg PUBLIC "-//W3C//DTD SVG 20010904//EN"
 "http://www.w3.org/TR/2001/REC-SVG-20010904/DTD/svg10.dtd">
<svg version="1.0" xmlns="http://www.w3.org/2000/svg"
 width="460.000000pt" height="460.000000pt" viewBox="0 0 460.000000 460.000000"
 preserveAspectRatio="xMidYMid meet">
<metadata>
Created by potrace 1.14, written by Peter Selinger 2001-2017
</metadata>
<g transform="translate(0.000000,460.000000) scale(0.100000,-0.100000)"
fill="#000000" stroke="none">
<path d="M2057 4123 c18 -2 50 -2 70 0 21 2 7 4 -32 4 -38 0 -55 -2 -38 -4z"/>
<path d="M2528 4123 c17 -2 47 -2 65 0 17 2 3 4 -33 4 -36 0 -50 -2 -32 -4z"/>
<path d="M1918 4113 c12 -2 30 -2 40 0 9 3 -1 5 -23 4 -22 0 -30 -2 -17 -4z"/>
<path d="M2698 4113 c12 -2 30 -2 40 0 9 3 -1 5 -23 4 -22 0 -30 -2 -17 -4z"/>
<path d="M2828 4103 c7 -3 16 -2 19 1 4 3 -2 6 -13 5 -11 0 -14 -3 -6 -6z"/>
<path d="M1703 4093 c9 -2 23 -2 30 0 6 3 -1 5 -18 5 -16 0 -22 -2 -12 -5z"/>
<path d="M2923 4093 c9 -2 23 -2 30 0 6 3 -1 5 -18 5 -16 0 -22 -2 -12 -5z"/>
<path d="M1643 4083 c9 -2 23 -2 30 0 6 3 -1 5 -18 5 -16 0 -22 -2 -12 -5z"/>
<path d="M2988 4083 c6 -2 18 -2 25 0 6 3 1 5 -13 5 -14 0 -19 -2 -12 -5z"/>
<path d="M1588 4073 c6 -2 18 -2 25 0 6 3 1 5 -13 5 -14 0 -19 -2 -12 -5z"/>
<path d="M3043 4073 c9 -2 23 -2 30 0 6 3 -1 5 -18 5 -16 0 -22 -2 -12 -5z"/>
<path d="M1548 4063 c7 -3 16 -2 19 1 4 3 -2 6 -13 5 -11 0 -14 -3 -6 -6z"/>
<path d="M3098 4063 c7 -3 16 -2 19 1 4 3 -2 6 -13 5 -11 0 -14 -3 -6 -6z"/>
<path d="M1498 4053 c7 -3 16 -2 19 1 4 3 -2 6 -13 5 -11 0 -14 -3 -6 -6z"/>
<path d="M3148 4053 c7 -3 16 -2 19 1 4 3 -2 6 -13 5 -11 0 -14 -3 -6 -6z"/>
<path d="M3225 4030 c27 -12 43 -12 25 0 -8 5 -22 9 -30 9 -10 0 -8 -3 5 -9z"/>
<path d="M1265 3980 c-3 -6 1 -7 9 -4 18 7 21 14 7 14 -6 0 -13 -4 -16 -10z"/>
<path d="M3370 3980 c8 -5 20 -10 25 -10 6 0 3 5 -5 10 -8 5 -19 10 -25 10 -5
0 -3 -5 5 -10z"/>
<path d="M1181 3915 l-31 -36 0 -1235 c0 -1075 -2 -1239 -15 -1271 -20 -48
-19 -81 5 -128 18 -36 20 -59 20 -258 l0 -219 33 -32 c95 -95 468 -163 997
-182 214 -7 530 8 774 37 198 23 229 29 356 70 107 34 171 72 181 109 4 14 7
118 8 232 1 189 3 210 21 240 27 44 25 94 -5 147 l-25 43 0 1228 c0 1157 -1
1228 -17 1241 -16 12 -17 12 -6 -2 10 -12 13 -285 13 -1265 0 -1104 -2 -1252
-15 -1272 l-16 -21 -20 20 c-11 11 -23 18 -26 15 -3 -3 2 -12 11 -21 9 -9 16
-21 16 -26 0 -26 -159 -92 -318 -134 -188 -49 -402 -69 -752 -69 -451 0 -694
30 -989 125 -99 32 -150 60 -191 104 l-25 27 -3 1220 -2 1220 35 -31 c50 -44
54 -39 5 7 -48 47 -50 70 -9 117 17 19 29 35 26 35 -3 0 -19 -16 -36 -35z
m1859 -2970 c7 -8 30 -20 51 -27 38 -11 39 -12 39 -59 0 -39 -5 -53 -30 -77
-16 -17 -30 -37 -30 -46 0 -15 -21 -23 -125 -46 -250 -56 -655 -75 -975 -46
-183 17 -185 17 -210 46 -14 17 -40 35 -57 41 -32 11 -33 13 -33 65 0 54 0 54
39 70 21 8 44 26 52 40 11 22 18 25 49 20 215 -34 769 -32 1029 3 85 12 157
24 160 26 9 10 29 5 41 -10z"/>
<path d="M2077 864 c-14 -15 -6 -34 14 -34 14 0 19 5 17 17 -3 18 -20 27 -31
17z"/>
<path d="M2240 785 c0 -78 2 -85 20 -85 17 0 20 7 20 45 0 33 4 45 14 45 10 0
16 -14 18 -42 2 -32 8 -44 21 -46 16 -3 18 3 15 55 l-3 58 -32 0 c-29 0 -33 3
-33 27 0 21 -5 28 -20 28 -18 0 -20 -7 -20 -85z"/>
<path d="M2665 845 c3 -22 0 -25 -31 -25 -38 0 -54 -20 -54 -69 0 -37 21 -50
78 -49 l42 0 0 84 c0 75 -2 84 -19 84 -14 0 -18 -6 -16 -25z m-5 -85 c0 -20
-5 -30 -15 -30 -18 0 -30 24 -21 45 10 28 36 17 36 -15z"/>
<path d="M1930 780 c0 -73 2 -80 20 -80 16 0 20 7 20 30 0 19 5 30 14 30 8 0
17 -13 21 -30 5 -21 13 -30 26 -30 16 0 19 4 13 23 -3 12 -10 28 -14 36 -4 8
-1 25 6 39 19 38 -5 62 -63 62 l-43 0 0 -80z m76 39 c3 -6 0 -15 -7 -20 -22
-14 -29 -11 -29 11 0 21 24 27 36 9z"/>
<path d="M2070 760 c0 -53 2 -60 20 -60 18 0 20 7 20 60 0 53 -2 60 -20 60
-18 0 -20 -7 -20 -60z"/>
<path d="M2146 804 c-9 -8 -16 -31 -16 -49 0 -38 20 -55 64 -55 32 0 35 27 4
32 -17 2 -23 10 -23 28 0 18 6 26 23 28 12 2 22 10 22 18 0 19 -54 18 -74 -2z"/>
<path d="M2380 805 c0 -10 11 -15 33 -16 l32 -1 -32 -9 c-33 -10 -48 -35 -37
-63 5 -12 17 -15 53 -13 45 3 46 4 47 37 1 63 -11 80 -56 80 -29 0 -40 -4 -40
-15z m58 -66 c-2 -6 -8 -10 -13 -10 -5 0 -11 4 -13 10 -2 6 4 11 13 11 9 0 15
-5 13 -11z"/>
<path d="M2500 759 c0 -52 2 -59 20 -59 16 0 20 7 20 35 0 24 6 37 20 45 34
18 24 38 -20 38 l-40 1 0 -60z"/>
<path d="M3420 3770 c-9 -6 -10 -10 -3 -10 6 0 15 5 18 10 8 12 4 12 -15 0z"/>
<path d="M3365 3740 c-3 -6 1 -7 9 -4 18 7 21 14 7 14 -6 0 -13 -4 -16 -10z"/>
<path d="M1320 3720 c8 -5 20 -10 25 -10 6 0 3 5 -5 10 -8 5 -19 10 -25 10 -5
0 -3 -5 5 -10z"/>
<path d="M3225 3690 c-13 -6 -15 -9 -5 -9 8 0 22 4 30 9 18 12 2 12 -25 0z"/>
<path d="M3178 3673 c7 -3 16 -2 19 1 4 3 -2 6 -13 5 -11 0 -14 -3 -6 -6z"/>
<path d="M3085 3660 c-27 -7 -28 -8 -5 -8 14 0 34 3 45 8 25 11 2 11 -40 0z"/>
<path d="M1558 3653 c7 -3 16 -2 19 1 4 3 -2 6 -13 5 -11 0 -14 -3 -6 -6z"/>
<path d="M1608 3643 c6 -2 18 -2 25 0 6 3 1 5 -13 5 -14 0 -19 -2 -12 -5z"/>
<path d="M3018 3643 c6 -2 18 -2 25 0 6 3 1 5 -13 5 -14 0 -19 -2 -12 -5z"/>
<path d="M1668 3633 c6 -2 18 -2 25 0 6 3 1 5 -13 5 -14 0 -19 -2 -12 -5z"/>
<path d="M2963 3633 c9 -2 23 -2 30 0 6 3 -1 5 -18 5 -16 0 -22 -2 -12 -5z"/>
<path d="M1743 3623 c9 -2 23 -2 30 0 6 3 -1 5 -18 5 -16 0 -22 -2 -12 -5z"/>
<path d="M2888 3623 c6 -2 18 -2 25 0 6 3 1 5 -13 5 -14 0 -19 -2 -12 -5z"/>
<path d="M1855 3610 c52 -9 152 -13 144 -6 -2 2 -47 6 -99 9 -68 4 -81 3 -45
-3z"/>
<path d="M2725 3610 c-48 -7 -48 -7 -10 -8 22 0 63 3 90 8 47 7 48 7 10 7 -22
0 -62 -3 -90 -7z"/>
<path d="M2555 3600 l-80 -6 75 -2 c41 -1 82 3 90 8 8 5 11 9 5 8 -5 -1 -46
-5 -90 -8z"/>
<path d="M2040 3594 c60 -8 130 -8 130 -1 0 4 -35 6 -77 6 -43 -1 -67 -3 -53
-5z"/>
</g>
</svg>
